#!OML:ASF C:\ViconDB\ViconDB\414\Spring2016\041811\Spring2016.ASF
:FULLY-SPECIFIED
:DEGREES
226
root 9.9495 18.0871 -10.5294 214.403 79.1972 210.748
lowerback 6.86733 1.94083 -8.10127
upperback 0.369346 1.95117 -1.32933
thorax -3.69697 1.11225 2.96063
lowerneck -14.937 -6.50977 -16.8117
upperneck 20.0765 -10.1138 24.1522
head 11.2527 -3.34443 10.6639
rclavicle -2.36554e-014 9.54166e-015
rhumerus -32.9759 -24.8488 4.85354
rradius 27.0159
rwrist 45.8436
rhand -29.6539 -12.4928
rfingers 7.12502
rthumb -2.98325 -42.4517
lclavicle -2.36554e-014 9.54166e-015
lhumerus -34.8859 -16.1549 2.4299
lradius 24.3986
lwrist -5.12118
lhand -27.5682 23.6785
lfingers 7.12502
lthumb -0.968909 53.656
rfemur -39.2518 -182.698 -3.67953
rtibia 33.33
rfoot -2.32783 -57.995
rtoes -27.3527
lfemur -29.3647 1.05491 -12.2182
ltibia 47.0008
lfoot -19.9684 -0.548388
ltoes -12.3908
227
root 9.96706 18.033 -10.5669 219.986 80.0813 216.401
lowerback 5.86391 1.68283 -7.60666
upperback 0.29538 1.73393 -1.24135
thorax -3.17359 0.979131 2.82568
lowerneck -14.1109 -6.59948 -17.1325
upperneck 20.5399 -10.3661 24.2585
head 11.3446 -3.51359 10.7806
rclavicle -9.54166e-015 1.43125e-014
rhumerus -31.8353 -24.9617 4.08271
rradius 27.1562
rwrist 44.965
rhand -29.6023 -12.8165
rfingers 7.12502
rthumb -2.93339 -42.7761
lclavicle -9.54166e-015 1.43125e-014
lhumerus -34.8214 -16.7906 3.30025
lradius 24.2086
lwrist -4.24532
lhand -27.7653 23.8256
lfingers 7.12502
lthumb -1.15922 53.8022
rfemur -40.8255 -182.843 -3.05172
rtibia 33.9345
rfoot -2.32714 -59.5162
rtoes -27.7597
lfemur -29.5987 2.04558 -12.0232
ltibia 48.0773
lfoot -20.6967 0.152482
ltoes -12.6248
228
root 9.972 17.9881 -10.5939 225.537 81.0997 221.941
lowerback 4.93181 1.47675 -7.40424
upperback 0.189781 1.55027 -1.25476
thorax -2.73436 0.872122 2.73631
lowerneck -13.413 -6.72954 -17.3515
upperneck 20.995 -10.659 24.2131
head 11.4542 -3.70215 10.8022
rclavicle -1.92821e-014 0
rhumerus -30.928 -25.3752 3.51237
rradius 27.2097
rwrist 44.6006
rhand -29.4248 -12.7891
rfingers 7.12502
rthumb -2.76196 -42.751
lclavicle -1.92821e-014 0
lhumerus -34.6135 -17.0372 4.18232
lradius 24.0661
lwrist -3.84918
lhand -28.0279 23.9901
lfingers 7.12502
lthumb -1.41288 53.9652
rfemur -42.1999 -183.344 -2.67616
rtibia 34.4291
rfoot -3.32682 -61.3685
rtoes -28.0996
lfemur -29.8209 3.03077 -12.1699
ltibia 48.9141
lfoot -21.3286 1.04892
ltoes -12.7733
229
root 9.97267 17.9665 -10.6124 232.111 81.9375 228.46
lowerback 4.19338 1.301 -7.14853
upperback -0.0448951 1.3809 -1.28967
thorax -2.53862 0.782472 2.58315
lowerneck -12.6016 -6.80749 -17.6947
upperneck 21.4098 -10.9008 24.3814
head 11.5396 -3.86413 10.9553
rclavicle 9.93923e-015 1.74931e-014
rhumerus -30.3581 -25.4118 3.15572
rradius 27.1506
rwrist 44.7015
rhand -29.4086 -12.189
rfingers 7.12502
rthumb -2.74631 -42.1511
lclavicle 9.93923e-015 1.74931e-014
lhumerus -34.2512 -17.021 5.02521
lradius 24.0101
lwrist -3.76103
lhand -28.1969 24.0132
lfingers 7.12502
lthumb -1.57606 53.9872
rfemur -43.3866 -183.996 -2.04059
rtibia 34.7863
rfoot -4.77728 -63.2394
rtoes -28.4574
lfemur -29.9407 3.95379 -12.2657
ltibia 49.4808
lfoot -21.8626 1.92537
ltoes -13.0589
230
root 9.96631 17.9509 -10.614 237.395 82.9614 233.77
lowerback 3.53736 1.12548 -7.46941
upperback -0.177039 1.18587 -1.39692
thorax -2.29225 0.684943 2.67452
lowerneck -12.0152 -6.90168 -17.7751
upperneck 21.811 -11.1314 24.2368
head 11.6209 -4.01671 10.9104
rclavicle 2.18663e-015 -3.65764e-014
rhumerus -29.8829 -24.497 2.33203
rradius 27.5363
rwrist 43.2614
rhand -29.1633 -13.2219
rfingers 7.12502
rthumb -2.5094 -43.1869
lclavicle 2.18663e-015 -3.65764e-014
lhumerus -33.9354 -16.8679 6.02748
lradius 24.1678
lwrist -3.5762
lhand -28.1412 24.0389
lfingers 7.12502
lthumb -1.52227 54.0132
rfemur -44.7067 -184.909 -1.78563
rtibia 35.1438
rfoot -6.38085 -65.3019
rtoes -29.1839
lfemur -29.872 4.45795 -12.7541
ltibia 49.8723
lfoot -22.3698 2.97877
ltoes -13.1428
231
root 9.95786 17.9375 -10.6046 242.753 84.0377 239.236
lowerback 3.04338 0.94592 -8.05285
upperback -0.329379 0.965432 -1.5156
thorax -2.15844 0.582534 2.89516
lowerneck -11.4401 -6.88988 -17.9177
upperneck 22.1764 -11.1905 24.128
head 11.651 -4.09331 10.9193
rclavicle 1.49089e-014 4.77083e-014
rhumerus -29.4402 -24.2179 1.85924
rradius 27.6004
rwrist 42.6985
rhand -29.1335 -12.8481
rfingers 7.12502
rthumb -2.48065 -42.8134
lclavicle 1.49089e-014 4.77083e-014
lhumerus -33.8256 -17.0481 7.25991
lradius 24.5326
lwrist -2.81408
lhand -28.3227 23.7412
lfingers 7.12502
lthumb -1.69761 53.7142
rfemur -46.1181 -186.18 -1.77128
rtibia 35.4054
rfoot -8.73022 -67.5284
rtoes -30.4007
lfemur -29.6428 4.81153 -13.3634
ltibia 50.1417
lfoot -22.754 3.75544
ltoes -13.0676
